<?xml version="1.0" standalone="no"?><!DOCTYPE svg PUBLIC "-//W3C//DTD SVG 1.1//EN" "http://www.w3.org/Graphics/SVG/1.1/DTD/svg11.dtd"><svg t="1521451673536" class="icon" style="" viewBox="0 0 1024 1024" version="1.1" xmlns="http://www.w3.org/2000/svg" p-id="9540" xmlns:xlink="http://www.w3.org/1999/xlink" width="128" height="128"><defs><style type="text/css"></style></defs><path d="M512 512m-512 0a512 512 0 1 0 1024 0 512 512 0 1 0-1024 0Z" fill="#3AD0F9" p-id="9541"></path><path d="M1012 716.8c0 16-14.4 28.8-32 28.8H50.4c-17.6 0-32-12.8-32-28.8s14.4-28.8 32-28.8h929.6c17.6 0 32 12.8 32 28.8z" fill="#AD5114" p-id="9542"></path><path d="M619.2 537.6c0 35.2-28.8 64-64 64H156.8c-35.2 0-64-28.8-64-64v-248c0-35.2 28.8-64 64-64h398.4c35.2 0 64 28.8 64 64v248z" fill="#EAEAEA" p-id="9543"></path><path d="M555.2 528H156.8c-35.2 0-64-28.8-64-64v74.4c0 35.2 28.8 64 64 64h398.4c35.2 0 64-28.8 64-64V464c0 35.2-28.8 64-64 64z" fill="#D4D6D6" p-id="9544"></path><path d="M560 616H152c-40 0-72-32-72-72V296c0-40 32-72 72-72h408c40 0 72 32 72 72v248c0 40-32 72-72 72zM152 240c-31.2 0-56 24.8-56 56v248c0 31.2 24.8 56 56 56h408c31.2 0 56-24.8 56-56V296c0-31.2-24.8-56-56-56H152z" fill="#663210" p-id="9545"></path><path d="M485.6 666.4c0 12-14.4 21.6-32 21.6H273.6c-17.6 0-32-9.6-32-21.6 0-12 14.4-21.6 32-21.6h180c17.6 0.8 32 9.6 32 21.6z" fill="#D4D6D6" p-id="9546"></path><path d="M280 696c-22.4 0-40-12-40-28s17.6-28 40-28h168c22.4 0 40 12 40 28S470.4 696 448 696H280z m0-40c-13.6 0-24 6.4-24 12s10.4 12 24 12v8-8h168c13.6 0 24-6.4 24-12S461.6 656 448 656H280z" fill="#663210" p-id="9547"></path><path d="M356 380m-44 0a44 44 0 1 0 88 0 44 44 0 1 0-88 0Z" fill="#D4D6D6" p-id="9548"></path><path d="M404 656c1.6 17.6-12 32-29.6 32h-61.6c-17.6 0-29.6-14.4-27.2-32l20.8-132c2.4-17.6 19.2-32 36.8-32h16c17.6 0 32.8 14.4 34.4 32L404 656z" fill="#EAEAEA" p-id="9549"></path><path d="M873.6 656c-21.6 0-38.4-17.6-38.4-40v-16c0-22.4 17.6-40 38.4-40s38.4 17.6 38.4 40v16c0 22.4-17.6 40-38.4 40z m0-80c-12.8 0-22.4 10.4-22.4 24v16c0 13.6 10.4 24 22.4 24 12.8 0 22.4-10.4 22.4-24v-16c0-13.6-10.4-24-22.4-24z" fill="#663210" p-id="9550"></path><path d="M868.8 656c0 17.6-14.4 32-32 32h-61.6c-17.6 0-32-14.4-32-32V555.2c0-17.6 14.4-32 32-32h61.6c17.6 0 32 14.4 32 32V656z" fill="#FBD000" p-id="9551"></path><path d="M787.2 498.4c-2.4 0-4-0.8-5.6-2.4-3.2-3.2-3.2-8 0-11.2 2.4-2.4 4-6.4 4-9.6 0-4-1.6-7.2-4-9.6-5.6-5.6-8.8-12.8-8.8-21.6 0-8 3.2-16 8.8-21.6 2.4-2.4 4-6.4 4-9.6 0-4-1.6-7.2-4-9.6-3.2-3.2-3.2-8 0-11.2 3.2-3.2 8-3.2 11.2 0 5.6 5.6 8.8 12.8 8.8 21.6 0 8-3.2 16-8.8 21.6-2.4 2.4-4 6.4-4 9.6 0 4 1.6 7.2 4 9.6 5.6 5.6 8.8 12.8 8.8 21.6 0 8-3.2 15.2-8.8 21.6-1.6 0-3.2 0.8-5.6 0.8zM820 443.2c-2.4 0-4-0.8-5.6-2.4-3.2-3.2-3.2-8 0-11.2 2.4-2.4 4-6.4 4-9.6 0-4-1.6-7.2-4-9.6-5.6-5.6-8.8-12.8-8.8-21.6 0-8 3.2-16 8.8-21.6 2.4-2.4 4-6.4 4-9.6s-1.6-7.2-4-9.6c-3.2-3.2-3.2-8 0-11.2 3.2-3.2 8-3.2 11.2 0 5.6 5.6 8.8 12.8 8.8 21.6 0 8-3.2 16-8.8 21.6-2.4 2.4-4 6.4-4 9.6 0 4 1.6 7.2 4 9.6 5.6 5.6 8.8 12.8 8.8 21.6 0 8-3.2 15.2-8.8 21.6-1.6 0.8-4 0.8-5.6 0.8z" fill="#FFFFFF" p-id="9552"></path><path d="M833.6 559.2h-60c-4.8 0-8-3.2-8-8s3.2-8 8-8h60c4.8 0 8 3.2 8 8s-3.2 8-8 8z" fill="#663210" p-id="9553"></path><path d="M1004.8 704c-5.6 5.6-14.4 8.8-24 8.8H50.4c-9.6 0-18.4-3.2-24-8.8-4.8 4-8 9.6-8 16 0 13.6 14.4 24 32 24h929.6c17.6 0 32-11.2 32-24 0-6.4-2.4-12-7.2-16z" fill="#993F0D" p-id="9554"></path><path d="M115.2 832c15.2 18.4 31.2 36 48 52l43.2-138.4h-72L115.2 832z" fill="#AD5114" p-id="9555"></path><path d="M976 752H56c-22.4 0-40-16-40-36S33.6 680 56 680h920c22.4 0 40 16 40 36s-17.6 36-40 36zM56 696c-13.6 0-24 8.8-24 20S42.4 736 56 736h920c13.6 0 24-8.8 24-20s-10.4-20-24-20H56z" fill="#663210" p-id="9556"></path><path d="M134.4 752h71.2l-9.6 30.4h-68.8z" fill="#993F0D" p-id="9557"></path><path d="M904.8 746.4h-72l40.8 131.2c17.6-16.8 33.6-35.2 48-54.4l-16.8-76.8z" fill="#AD5114" p-id="9558"></path><path d="M205.6 738.4h-72c-4 0-7.2 2.4-8 6.4l-17.6 80c4 5.6 8.8 11.2 12.8 16l19.2-88h54.4l-38.4 126.4c4 4 8.8 8 12.8 12l44-141.6c0.8-2.4 0-4.8-0.8-7.2-0.8-3.2-3.2-4-6.4-4z" fill="#663210" p-id="9559"></path><path d="M904.8 752h-72l9.6 30.4h68.8z" fill="#993F0D" p-id="9560"></path><path d="M374.4 641.6h-61.6c-10.4 0-18.4-4.8-23.2-12.8l-4 23.2c-2.4 17.6 9.6 32 27.2 32h61.6c17.6 0 31.2-14.4 29.6-32l-2.4-28c-4.8 10.4-14.4 17.6-27.2 17.6z" fill="#D4D6D6" p-id="9561"></path><path d="M904.8 738.4h-72c-2.4 0-4.8 1.6-6.4 3.2-1.6 2.4-1.6 4.8-0.8 7.2l41.6 134.4c4-4 8.8-8 12.8-12.8L843.2 752h54.4l16.8 78.4c4-5.6 8.8-11.2 12.8-16.8L912 744c0-3.2-4-5.6-7.2-5.6zM374.4 696h-61.6c-11.2 0-20.8-4-27.2-12-6.4-8-9.6-18.4-8-28.8l20.8-132c3.2-20.8 24-43.2 45.6-43.2h16c21.6 0 40 22.4 41.6 44l10.4 131.2c0.8 10.4-2.4 20.8-9.6 28.8-7.2 7.2-17.6 12-28 12zM344 496c-13.6 0-28 16-29.6 29.6l-20.8 132c-0.8 6.4 0.8 12 4 16s8.8 6.4 15.2 6.4h61.6c6.4 0 12-2.4 16-6.4s6.4-10.4 5.6-16.8l-10.4-131.2C384 512 373.6 496 360 496h-16z" fill="#663210" p-id="9562"></path><path d="M836.8 656.8h-61.6c-17.6 0-32-14.4-32-32V656c0 17.6 14.4 32 32 32h61.6c17.6 0 32-14.4 32-32v-31.2c0 17.6-14.4 32-32 32z" fill="#F4B10B" p-id="9563"></path><path d="M832 696h-56c-22.4 0-40-17.6-40-40V560c0-22.4 17.6-40 40-40h56c22.4 0 40 17.6 40 40v96c0 21.6-17.6 40-40 40z m-56-160c-13.6 0-24 10.4-24 24v96c0 13.6 10.4 24 24 24h56c13.6 0 24-11.2 24-24V560c0-13.6-10.4-24-24-24h-56z" fill="#663210" p-id="9564"></path><path d="M520 952c-17.6 0-32-14.4-32-32s14.4-32 32-32 32 14.4 32 32-14.4 32-32 32z m0-48.8c-9.6 0-16.8 8-16.8 16.8 0 9.6 8 16.8 16.8 16.8 9.6 0 16.8-8 16.8-16.8 0-9.6-7.2-16.8-16.8-16.8zM480 152c-17.6 0-32-14.4-32-32s14.4-32 32-32 32 14.4 32 32-14.4 32-32 32z m0-48.8c-9.6 0-16.8 8-16.8 16.8 0 9.6 8 16.8 16.8 16.8 9.6 0 16.8-8 16.8-16.8 0-9.6-7.2-16.8-16.8-16.8zM730.4 168c0-3.2-3.2-6.4-8-7.2l-15.2-2.4c-4-0.8-8.8-4.8-8.8-8.8l-2.4-15.2c-0.8-4-4-8-7.2-8s-6.4 3.2-7.2 8l-2.4 15.2c-0.8 4-4.8 8.8-8.8 8.8l-15.2 2.4c-4 0.8-8 4-8 7.2s3.2 6.4 8 7.2l15.2 2.4c4 0.8 8.8 4.8 8.8 8.8l2.4 15.2c0.8 4 4 8 7.2 8s6.4-3.2 6.4-8l2.4-16.8c0.8-4 4.8-8 8.8-8.8l14.4-0.8c6.4-1.6 9.6-4 9.6-7.2zM378.4 864c0-3.2-3.2-6.4-8-7.2l-15.2-2.4c-4-0.8-8.8-4.8-8.8-8.8l-2.4-15.2c-0.8-4-4-8-7.2-8s-6.4 3.2-7.2 8l-2.4 15.2c-0.8 4-4.8 8.8-8.8 8.8l-15.2 2.4c-4 0.8-8 4-8 7.2s3.2 6.4 8 7.2l15.2 2.4c4 0.8 8.8 4.8 8.8 8.8l2.4 15.2c0.8 4 4 8 7.2 8s6.4-3.2 6.4-8l2.4-16.8c0.8-4 4.8-8 8.8-8.8l14.4-0.8c6.4-1.6 9.6-4 9.6-7.2zM968.8 454.4c0-3.2-3.2-6.4-8-7.2l-15.2-2.4c-4-0.8-8.8-4.8-8.8-8.8l-2.4-15.2c-0.8-4-4-8-7.2-8s-6.4 3.2-7.2 8l-2.4 15.2c-0.8 4-4.8 8.8-8.8 8.8l-15.2 2.4c-4 0.8-8 4-8 7.2s3.2 6.4 8 7.2l15.2 2.4c4 0.8 8.8 4.8 8.8 8.8l2.4 15.2c0.8 4 4 8 7.2 8s6.4-3.2 6.4-8l2.4-16.8c0.8-4 4.8-8 8.8-8.8l14.4-0.8c6.4-0.8 9.6-4 9.6-7.2zM701.6 832c0-3.2-3.2-6.4-8-7.2l-15.2-2.4c-4-0.8-8.8-4.8-8.8-8.8l-2.4-15.2c-0.8-4-4-8-7.2-8s-6.4 3.2-7.2 8l-2.4 15.2c-0.8 4-4.8 8.8-8.8 8.8l-15.2 2.4c-4 0.8-8 4-8 7.2s3.2 6.4 8 7.2l15.2 2.4c4 0.8 8.8 4.8 8.8 8.8l2.4 15.2c0.8 4 4 8 7.2 8s6.4-3.2 6.4-8l2.4-16.8c0.8-4 4.8-8 8.8-8.8l14.4-0.8c5.6-0.8 9.6-4 9.6-7.2zM584 484c-4.8 0-8-3.2-8-8V306.4c0-28.8-0.8-34.4-34.4-34.4H312c-4.8 0-8-3.2-8-8s3.2-8 8-8h229.6c44 0 50.4 15.2 50.4 50.4v169.6c0 4.8-3.2 8-8 8zM256 272h-78.4c-4.8 0-8-3.2-8-8s3.2-8 8-8H256c4.8 0 8 3.2 8 8s-3.2 8-8 8zM316 627.2h-1.6c-4-0.8-7.2-4.8-6.4-9.6l15.2-88.8c0.8-4 4.8-7.2 9.6-6.4 4 0.8 7.2 4.8 6.4 9.6l-15.2 88.8c-0.8 3.2-4 6.4-8 6.4z" fill="#FFFFFF" p-id="9565"></path><path d="M944 720h-76c-4.8 0-8-3.2-8-8s3.2-8 8-8h76c4.8 0 8 3.2 8 8s-3.2 8-8 8zM812.8 720H308c-4.8 0-8-3.2-8-8s3.2-8 8-8h504.8c4.8 0 8 3.2 8 8s-3.2 8-8 8z" fill="#FFFFFF" p-id="9566"></path><path d="M768 638.4c-4.8 0-8-3.2-8-8v-51.2c0-4.8 3.2-8 8-8s8 3.2 8 8v51.2c0 4-3.2 8-8 8z" fill="#FFFFFF" p-id="9567"></path></svg>